{"title":"Eraser 1996 DVDRip Xvid AC3 LKRG","uid":6732289,"size":1076636497,"categoryP":"video","categoryS":"movies","magnet":"?xt=urn:btih:8a81c2def46b12eeeafca5cb7c654db14676c62a&amp;dn=Eraser+1996+DVDRip+Xvid+AC3+LKRG&amp;tr=udp%3A%2F%2Ftracker.openbittorrent.com%3A80&amp;tr=udp%3A%2F%2Fopen.demonii.com%3A1337&amp;tr=udp%3A%2F%2Ftracker.coppersurfer.tk%3A6969&amp;tr=udp%3A%2F%2Fexodus.desync.com%3A6969","seeders":0,"leechers":0,"uploader":".BONE.","files":2,"time":1318204155,"description":"PLOT\n\nA Witness Protection specialist becomes suspicious of his co-workers when dealing with a case involving\nhigh-tech weapons.\n &lt;a href=&quot;\nhttp://www.imdb.com/title/tt0116213/&quot; rel=&quot;nofollow&quot; target=&quot;_NEW&quot;&gt;\nhttp://www.imdb.com/title/tt0116213/&lt;/a&gt;\n\n\nEncoded By .......: LKRG\nRuntime ..........: 1h 54mn\nFile Size ........: 1.00 GB\nResolution .......: 704 x 396\nIMDb URL .........: http://www.imdb.com/title/tt0116213/\nGenre ............: Action,Crime,Drama\nLanguage .........: English\nSubtitles ........: None\nVideo\nID : 0\nFormat : MPEG-4 Visual\nFormat profile : Advanced Simple@L5\nFormat settings, BVOP : Yes\nFormat settings, QPel : No\nFormat settings, GMC : No warppoints\nFormat settings, Matrix : Default (H.263)\nCodec ID : XVID\nCodec ID/Hint : XviD\nDuration : 1h 54mn\nBit rate : 34.0 Kbps\nWidth : 704 pixels\nHeight : 396 pixels\nDisplay aspect ratio : 16:9\nFrame rate : 23.976 fps\nColor space : YUV\nChroma subsampling : 4:2:0\nBit depth : 8 bits\nScan type : Progressive\nCompression mode : Lossy\nBits/(Pixel*Frame) : 0.005\nStream size : 27.8 MiB (3%)\nWriting library : XviD 1.2.1 (UTC 2008-12-04)\nAudio\nID : 1\nFormat : AC-3\nFormat/Info : Audio Coding 3\nCodec ID : 2000\nDuration : 1h 54mn\nBit rate mode : Constant\nBit rate : 448 Kbps\nChannel(s) : 6 channels\nSampling rate : 48.0 KHz\nBit depth : 16 bits\nCompression mode : Lossy\nStream size : 367 MiB (36%)\nAlignment : Aligned on interleaves\n","torrent":{"xt":"urn:btih:8a81c2def46b12eeeafca5cb7c654db14676c62a","amp;dn":"Eraser+1996+DVDRip+Xvid+AC3+LKRG","amp;tr":["udp%3A%2F%2Ftracker.openbittorrent.com%3A80","udp%3A%2F%2Fopen.demonii.com%3A1337","udp%3A%2F%2Ftracker.coppersurfer.tk%3A6969","udp%3A%2F%2Fexodus.desync.com%3A6969"],"infoHash":"8a81c2def46b12eeeafca5cb7c654db14676c62a","infoHashBuffer":{"type":"Buffer","data":[138,129,194,222,244,107,18,238,234,252,165,203,124,101,77,177,70,118,198,42]},"announce":[],"urlList":[]}}